# Blender v3.0.0 OBJ File: 'corner.blend'
# www.blender.org
mtllib corner.mtl
o Right_Cube.014
v -2.100000 -1.000000 1.000000
v -2.100000 -1.000000 3.000000
v -2.100000 3.000000 3.000000
v -2.100000 1.000000 -3.000000
v -2.100000 1.000000 1.000000
v -2.100000 1.000000 3.000000
v -2.100000 -1.000000 -1.000000
v -1.900000 -1.000000 3.000000
v -1.900000 1.000000 -3.000000
v -2.100000 5.000000 3.000000
v -2.100000 1.000000 -1.000000
v -1.900000 -1.000000 1.000000
v -2.100000 3.000000 1.000000
v -1.900000 1.000000 1.000000
v -1.900000 -1.000000 -1.000000
v -2.100000 3.000000 -3.000000
v -1.900000 1.000000 -1.000000
v -2.100000 3.000000 -1.000000
v -1.900000 1.000000 3.000000
v -2.100000 5.000000 -3.000000
v -2.100000 5.000000 1.000000
v -2.100000 5.000000 -1.000000
v -1.900000 3.000000 3.000000
v -1.900000 3.000000 -3.000000
v -1.900000 5.000000 3.000000
v -1.900000 5.000000 -3.000000
v -1.900000 3.000000 1.000000
v -1.900000 3.000000 -1.000000
v -1.900000 5.000000 1.000000
v -1.900000 5.000000 -1.000000
vt 0.625000 0.000000
vt 0.394843 0.029528
vt 0.375000 0.000000
vt 0.644843 0.029528
vt 0.419646 0.032599
vt 0.677269 0.547740
vt 0.594309 0.301324
vt 0.685188 0.366791
vt 0.505315 0.026851
vt 0.417677 0.029659
vt 0.625000 0.000000
vt 0.391667 0.050000
vt 0.375000 0.000000
vt 0.515981 0.595383
vt 0.581606 0.787976
vt 0.589939 0.652791
vt 0.618750 0.961111
vt 0.375000 1.000000
vt 0.376042 0.961111
vt 0.914583 0.987037
vt 0.739583 0.968518
vt 0.532402 0.032336
vt 0.515551 0.041286
vt 0.507283 0.023517
vt 0.660507 0.871827
vt 0.587590 0.654942
vt 0.666498 0.723776
vt 0.559173 0.020840
vt 0.560512 0.023911
vt 0.600197 0.044357
vt 0.593583 0.014698
vt 0.348543 0.017769
vt 0.330354 0.017638
vt 0.590276 0.017769
vt 0.343583 0.035538
vt 0.752695 0.962568
vt 0.670998 0.727061
vt 0.760753 0.804332
vt 0.635236 0.017900
vt 0.390197 0.041549
vt 0.385236 0.017900
vt 0.625000 0.000000
vt 0.373346 0.026588
vt 0.375000 0.000000
vt 0.587885 0.653120
vt 0.518078 0.433129
vt 0.595292 0.490843
vt 0.625000 0.020971
vt 0.379961 0.038741
vt 0.375000 0.020971
vt 0.625000 0.000000
vt 0.370039 0.038347
vt 0.375000 0.000000
vt 0.667880 0.718518
vt 0.597917 0.494444
vt 0.676599 0.553602
vt 0.625000 0.000000
vt 0.368386 0.023648
vt 0.375000 0.000000
vt 0.594715 0.486551
vt 0.520470 0.263682
vt 0.596715 0.295475
vt 0.628307 0.961653
vt 0.375000 1.000000
vt 0.378307 0.961653
vt 0.393189 0.973281
vt 0.287047 0.985170
vt 0.249016 0.967401
vt 0.625000 0.000000
vt 0.375000 0.032467
vt 0.375000 0.000000
vt 0.653110 0.017769
vt 0.570118 0.026719
vt 0.403110 0.017769
vt 0.767229 0.802292
vt 0.676703 0.555556
vt 0.776439 0.630717
vt 0.331693 0.041549
vt 0.320118 0.026719
vt 0.669646 0.032599
vt 0.596493 0.485433
vt 0.507283 0.029790
vt 0.637500 0.035185
vt 0.515578 0.723465
vt 0.625000 1.000000
vt 0.894792 0.953704
vt 0.540669 0.050105
vt 0.584733 0.793076
vt 0.512874 0.032730
vt 0.593583 0.035538
vt 0.664635 0.875483
vt 0.640197 0.041549
vt 0.623347 0.026588
vt 0.516479 0.594240
vt 0.629961 0.038741
vt 0.620039 0.038347
vt 0.582521 0.641251
vt 0.618386 0.023648
vt 0.518702 0.439516
vt 0.625000 1.000000
vt 0.625000 0.032467
vt 0.820118 0.026719
vt 0.670205 0.717693
vt 0.581693 0.041549
vn -1.0000 0.0000 0.0000
vn 0.0000 0.0000 -1.0000
vn 1.0000 0.0000 0.0000
vn 0.0000 -1.0000 0.0000
vn 0.0000 0.0000 1.0000
vn 0.0000 1.0000 0.0000
usemtl Material.006
s off
f 5/1/1 7/2/1 1/3/1
f 11/4/2 15/5/2 7/2/2
f 17/6/3 12/7/3 15/8/3
f 15/5/4 1/9/4 7/10/4
f 10/11/1 13/12/1 3/13/1
f 29/14/3 23/15/3 27/16/3
f 25/17/5 3/18/5 23/19/5
f 21/20/6 25/17/6 29/21/6
f 21/22/1 18/23/1 13/24/1
f 30/25/3 27/26/3 28/27/3
f 22/28/6 29/29/6 30/30/6
f 22/31/1 16/32/1 18/33/1
f 20/34/2 24/35/2 16/32/2
f 26/36/3 28/37/3 24/38/3
f 20/39/6 30/40/6 26/41/6
f 3/42/1 5/43/1 6/44/1
f 27/45/3 19/46/3 14/47/3
f 23/48/5 6/49/5 19/50/5
f 13/51/1 11/52/1 5/53/1
f 28/54/3 14/55/3 17/56/3
f 6/57/1 1/58/1 2/59/1
f 14/60/3 8/61/3 12/62/3
f 19/63/5 2/64/5 8/65/5
f 12/66/4 2/67/4 1/68/4
f 18/69/1 4/70/1 11/71/1
f 16/72/2 9/73/2 4/74/2
f 24/75/3 17/76/3 9/77/3
f 9/73/4 11/78/4 4/79/4
f 5/1/1 11/4/1 7/2/1
f 11/4/2 17/80/2 15/5/2
f 17/6/3 14/81/3 12/7/3
f 15/5/4 12/82/4 1/9/4
f 10/11/1 21/83/1 13/12/1
f 29/14/3 25/84/3 23/15/3
f 25/17/5 10/85/5 3/18/5
f 21/20/6 10/86/6 25/17/6
f 21/22/1 22/87/1 18/23/1
f 30/25/3 29/88/3 27/26/3
f 22/28/6 21/89/6 29/29/6
f 22/31/1 20/34/1 16/32/1
f 20/34/2 26/90/2 24/35/2
f 26/36/3 30/91/3 28/37/3
f 20/39/6 22/92/6 30/40/6
f 3/42/1 13/93/1 5/43/1
f 27/45/3 23/94/3 19/46/3
f 23/48/5 3/95/5 6/49/5
f 13/51/1 18/96/1 11/52/1
f 28/54/3 27/97/3 14/55/3
f 6/57/1 5/98/1 1/58/1
f 14/60/3 19/99/3 8/61/3
f 19/63/5 6/100/5 2/64/5
f 12/66/4 8/65/4 2/67/4
f 18/69/1 16/101/1 4/70/1
f 16/72/2 24/102/2 9/73/2
f 24/75/3 28/103/3 17/76/3
f 9/73/4 17/104/4 11/78/4
o Left_Cube.015
v 4.000000 3.000000 3.100000
v 4.000000 5.000000 3.100000
v -0.000000 5.000000 3.100000
v 2.000000 -1.000000 3.100000
v 2.000000 3.000000 3.100000
v 2.000000 5.000000 3.100000
v 4.000000 1.000000 3.100000
v 4.000000 5.000000 2.900000
v 2.000000 -1.000000 2.900000
v -2.000000 5.000000 3.100000
v 2.000000 1.000000 3.100000
v 4.000000 3.000000 2.900000
v 0.000000 3.000000 3.100000
v 2.000000 3.000000 2.900000
v 4.000000 1.000000 2.900000
v 0.000000 -1.000000 3.100000
v 2.000000 1.000000 2.900000
v 0.000000 1.000000 3.100000
v 2.000000 5.000000 2.900000
v -2.000000 -1.000000 3.100000
v -2.000000 3.000000 3.100000
v -2.000000 1.000000 3.100000
v -0.000000 5.000000 2.900000
v 0.000000 -1.000000 2.900000
v -2.000000 5.000000 2.900000
v -2.000000 -1.000000 2.900000
v 0.000000 3.000000 2.900000
v 0.000000 1.000000 2.900000
v -2.000000 3.000000 2.900000
v -2.000000 1.000000 2.900000
vt 0.625000 0.000000
vt 0.394843 0.029528
vt 0.375000 0.000000
vt 0.644843 0.029528
vt 0.419646 0.032599
vt 0.676487 0.554221
vt 0.594309 0.301324
vt 0.685188 0.349198
vt 0.505315 0.026851
vt 0.417677 0.029659
vt 0.625000 0.000000
vt 0.391667 0.050000
vt 0.375000 0.000000
vt 0.515981 0.595383
vt 0.581606 0.787976
vt 0.587335 0.654180
vt 0.618750 0.961111
vt 0.375000 1.000000
vt 0.376042 0.961111
vt 0.914583 0.987037
vt 0.739583 0.968518
vt 0.532402 0.032336
vt 0.515551 0.041286
vt 0.507283 0.023517
vt 0.660507 0.871827
vt 0.587590 0.654942
vt 0.666498 0.723776
vt 0.559173 0.020840
vt 0.560512 0.023911
vt 0.600197 0.044357
vt 0.593583 0.014698
vt 0.348543 0.017769
vt 0.330354 0.017638
vt 0.590276 0.017769
vt 0.343583 0.035538
vt 0.752695 0.962568
vt 0.666310 0.723820
vt 0.762315 0.804332
vt 0.635236 0.017900
vt 0.390197 0.041549
vt 0.385236 0.017900
vt 0.625000 0.000000
vt 0.373346 0.026588
vt 0.375000 0.000000
vt 0.587885 0.653120
vt 0.518078 0.433129
vt 0.595292 0.490843
vt 0.625000 0.020971
vt 0.379961 0.038741
vt 0.375000 0.020971
vt 0.625000 0.000000
vt 0.370039 0.038347
vt 0.375000 0.000000
vt 0.667099 0.723611
vt 0.596354 0.490741
vt 0.676599 0.553602
vt 0.625000 0.000000
vt 0.368386 0.023648
vt 0.375000 0.000000
vt 0.596538 0.490255
vt 0.520470 0.263682
vt 0.595153 0.303809
vt 0.628307 0.961653
vt 0.375000 1.000000
vt 0.378307 0.961653
vt 0.393189 0.973281
vt 0.287047 0.985170
vt 0.249016 0.967401
vt 0.625000 0.000000
vt 0.375000 0.032467
vt 0.375000 0.000000
vt 0.653110 0.017769
vt 0.570118 0.026719
vt 0.403110 0.017769
vt 0.763063 0.805070
vt 0.676703 0.555556
vt 0.776960 0.630717
vt 0.331693 0.041549
vt 0.320118 0.026719
vt 0.669646 0.032599
vt 0.596232 0.489137
vt 0.507283 0.029790
vt 0.637500 0.035185
vt 0.515578 0.723465
vt 0.625000 1.000000
vt 0.894792 0.953704
vt 0.540669 0.050105
vt 0.581608 0.787520
vt 0.512874 0.032730
vt 0.593583 0.035538
vt 0.660208 0.871317
vt 0.640197 0.041549
vt 0.623347 0.026588
vt 0.516479 0.594240
vt 0.629961 0.038741
vt 0.620039 0.038347
vt 0.587469 0.655139
vt 0.618386 0.023648
vt 0.518702 0.439516
vt 0.625000 1.000000
vt 0.625000 0.032467
vt 0.820118 0.026719
vt 0.666559 0.724175
vt 0.581693 0.041549
vn 0.0000 0.0000 1.0000
vn 0.0000 -1.0000 0.0000
vn -0.0000 0.0000 -1.0000
vn 1.0000 0.0000 0.0000
vn 0.0000 1.0000 0.0000
vn -1.0000 0.0000 0.0000
usemtl Material.007
s off
f 35/105/7 37/106/7 31/107/7
f 41/108/8 45/109/8 37/106/8
f 47/110/9 42/111/9 45/112/9
f 45/109/10 31/113/10 37/114/10
f 40/115/7 43/116/7 33/117/7
f 59/118/9 53/119/9 57/120/9
f 55/121/11 33/122/11 53/123/11
f 51/124/12 55/121/12 59/125/12
f 51/126/7 48/127/7 43/128/7
f 60/129/9 57/130/9 58/131/9
f 52/132/12 59/133/12 60/134/12
f 52/135/7 46/136/7 48/137/7
f 50/138/8 54/139/8 46/136/8
f 56/140/9 58/141/9 54/142/9
f 50/143/12 60/144/12 56/145/12
f 33/146/7 35/147/7 36/148/7
f 57/149/9 49/150/9 44/151/9
f 53/152/11 36/153/11 49/154/11
f 43/155/7 41/156/7 35/157/7
f 58/158/9 44/159/9 47/160/9
f 36/161/7 31/162/7 32/163/7
f 44/164/9 38/165/9 42/166/9
f 49/167/11 32/168/11 38/169/11
f 42/170/10 32/171/10 31/172/10
f 48/173/7 34/174/7 41/175/7
f 46/176/8 39/177/8 34/178/8
f 54/179/9 47/180/9 39/181/9
f 39/177/10 41/182/10 34/183/10
f 35/105/7 41/108/7 37/106/7
f 41/108/8 47/184/8 45/109/8
f 47/110/9 44/185/9 42/111/9
f 45/109/10 42/186/10 31/113/10
f 40/115/7 51/187/7 43/116/7
f 59/118/9 55/188/9 53/119/9
f 55/121/11 40/189/11 33/122/11
f 51/124/12 40/190/12 55/121/12
f 51/126/7 52/191/7 48/127/7
f 60/129/9 59/192/9 57/130/9
f 52/132/12 51/193/12 59/133/12
f 52/135/7 50/138/7 46/136/7
f 50/138/8 56/194/8 54/139/8
f 56/140/9 60/195/9 58/141/9
f 50/143/12 52/196/12 60/144/12
f 33/146/7 43/197/7 35/147/7
f 57/149/9 53/198/9 49/150/9
f 53/152/11 33/199/11 36/153/11
f 43/155/7 48/200/7 41/156/7
f 58/158/9 57/201/9 44/159/9
f 36/161/7 35/202/7 31/162/7
f 44/164/9 49/203/9 38/165/9
f 49/167/11 36/204/11 32/168/11
f 42/170/10 38/169/10 32/171/10
f 48/173/7 46/205/7 34/174/7
f 46/176/8 54/206/8 39/177/8
f 54/179/9 58/207/9 47/180/9
f 39/177/10 47/208/10 41/182/10
o top_Cube.016
v -0.000000 5.100000 -3.000000
v -2.000000 5.100000 -3.000000
v -2.000000 5.100000 1.000000
v 4.000000 5.100000 -1.000000
v 0.000000 5.100000 -1.000000
v -2.000000 5.100000 -1.000000
v 2.000000 5.100000 -3.000000
v -2.000000 4.900000 -3.000000
v 4.000000 4.900000 -1.000000
v -1.999999 5.100000 3.000000
v 2.000000 5.100000 -1.000000
v -0.000000 4.900000 -3.000000
v 0.000000 5.100000 1.000000
v 0.000000 4.900000 -1.000000
v 2.000000 4.900000 -3.000000
v 4.000000 5.100000 1.000000
v 2.000000 4.900000 -1.000000
v 2.000000 5.100000 1.000000
v -2.000000 4.900000 -1.000000
v 4.000001 5.100000 3.000000
v 0.000001 5.100000 3.000000
v 2.000001 5.100000 3.000000
v -2.000000 4.900000 1.000000
v 4.000000 4.900000 1.000000
v -1.999999 4.900000 3.000000
v 4.000001 4.900000 3.000000
v 0.000000 4.900000 1.000000
v 2.000000 4.900000 1.000000
v 0.000001 4.900000 3.000000
v 2.000001 4.900000 3.000000
vt 0.625000 0.000000
vt 0.394843 0.029528
vt 0.375000 0.000000
vt 0.644843 0.029528
vt 0.419646 0.032599
vt 0.676487 0.554221
vt 0.594309 0.301324
vt 0.685188 0.349198
vt 0.505315 0.026851
vt 0.417677 0.029659
vt 0.625000 0.000000
vt 0.391667 0.050000
vt 0.375000 0.000000
vt 0.515981 0.595383
vt 0.581606 0.787976
vt 0.587335 0.654180
vt 0.618750 0.961111
vt 0.375000 1.000000
vt 0.376042 0.961111
vt 0.914583 0.987037
vt 0.739583 0.968518
vt 0.532402 0.032336
vt 0.515551 0.041286
vt 0.507283 0.023517
vt 0.660507 0.871827
vt 0.587590 0.654942
vt 0.666498 0.723776
vt 0.559173 0.020840
vt 0.560512 0.023911
vt 0.600197 0.044357
vt 0.593583 0.014698
vt 0.348543 0.017769
vt 0.330354 0.017638
vt 0.590276 0.017769
vt 0.343583 0.035538
vt 0.752695 0.962568
vt 0.666310 0.723820
vt 0.762315 0.804332
vt 0.635236 0.017900
vt 0.390197 0.041549
vt 0.385236 0.017900
vt 0.625000 0.000000
vt 0.373346 0.026588
vt 0.375000 0.000000
vt 0.587885 0.653120
vt 0.518078 0.433129
vt 0.595292 0.490843
vt 0.625000 0.020971
vt 0.379961 0.038741
vt 0.375000 0.020971
vt 0.625000 0.000000
vt 0.370039 0.038347
vt 0.375000 0.000000
vt 0.667099 0.723611
vt 0.596354 0.490741
vt 0.676599 0.553602
vt 0.625000 0.000000
vt 0.368386 0.023648
vt 0.375000 0.000000
vt 0.596538 0.490255
vt 0.520470 0.263682
vt 0.595153 0.303809
vt 0.628307 0.961653
vt 0.375000 1.000000
vt 0.378307 0.961653
vt 0.393189 0.973281
vt 0.287047 0.985170
vt 0.249016 0.967401
vt 0.625000 0.000000
vt 0.375000 0.032467
vt 0.375000 0.000000
vt 0.653110 0.017769
vt 0.570118 0.026719
vt 0.403110 0.017769
vt 0.763063 0.805070
vt 0.676703 0.555556
vt 0.776960 0.630717
vt 0.331693 0.041549
vt 0.320118 0.026719
vt 0.669646 0.032599
vt 0.596232 0.489137
vt 0.507283 0.029790
vt 0.637500 0.035185
vt 0.515578 0.723465
vt 0.625000 1.000000
vt 0.894792 0.953704
vt 0.540669 0.050105
vt 0.581608 0.787520
vt 0.512874 0.032730
vt 0.593583 0.035538
vt 0.660208 0.871317
vt 0.640197 0.041549
vt 0.623347 0.026588
vt 0.516479 0.594240
vt 0.629961 0.038741
vt 0.620039 0.038347
vt 0.587469 0.655139
vt 0.618386 0.023648
vt 0.518702 0.439516
vt 0.625000 1.000000
vt 0.625000 0.032467
vt 0.820118 0.026719
vt 0.666559 0.724175
vt 0.581693 0.041549
vn 0.0000 1.0000 0.0000
vn 1.0000 0.0000 -0.0000
vn 0.0000 -1.0000 -0.0000
vn 0.0000 0.0000 -1.0000
vn -1.0000 0.0000 0.0000
vn 0.0000 0.0000 1.0000
usemtl Material.008
s off
f 65/209/13 67/210/13 61/211/13
f 71/212/14 75/213/14 67/210/14
f 77/214/15 72/215/15 75/216/15
f 75/213/16 61/217/16 67/218/16
f 70/219/13 73/220/13 63/221/13
f 89/222/15 83/223/15 87/224/15
f 85/225/17 63/226/17 83/227/17
f 81/228/18 85/225/18 89/229/18
f 81/230/13 78/231/13 73/232/13
f 90/233/15 87/234/15 88/235/15
f 82/236/18 89/237/18 90/238/18
f 82/239/13 76/240/13 78/241/13
f 80/242/14 84/243/14 76/240/14
f 86/244/15 88/245/15 84/246/15
f 80/247/18 90/248/18 86/249/18
f 63/250/13 65/251/13 66/252/13
f 87/253/15 79/254/15 74/255/15
f 83/256/17 66/257/17 79/258/17
f 73/259/13 71/260/13 65/261/13
f 88/262/15 74/263/15 77/264/15
f 66/265/13 61/266/13 62/267/13
f 74/268/15 68/269/15 72/270/15
f 79/271/17 62/272/17 68/273/17
f 72/274/16 62/275/16 61/276/16
f 78/277/13 64/278/13 71/279/13
f 76/280/14 69/281/14 64/282/14
f 84/283/15 77/284/15 69/285/15
f 69/281/16 71/286/16 64/287/16
f 65/209/13 71/212/13 67/210/13
f 71/212/14 77/288/14 75/213/14
f 77/214/15 74/289/15 72/215/15
f 75/213/16 72/290/16 61/217/16
f 70/219/13 81/291/13 73/220/13
f 89/222/15 85/292/15 83/223/15
f 85/225/17 70/293/17 63/226/17
f 81/228/18 70/294/18 85/225/18
f 81/230/13 82/295/13 78/231/13
f 90/233/15 89/296/15 87/234/15
f 82/236/18 81/297/18 89/237/18
f 82/239/13 80/242/13 76/240/13
f 80/242/14 86/298/14 84/243/14
f 86/244/15 90/299/15 88/245/15
f 80/247/18 82/300/18 90/248/18
f 63/250/13 73/301/13 65/251/13
f 87/253/15 83/302/15 79/254/15
f 83/256/17 63/303/17 66/257/17
f 73/259/13 78/304/13 71/260/13
f 88/262/15 87/305/15 74/263/15
f 66/265/13 65/306/13 61/266/13
f 74/268/15 79/307/15 68/269/15
f 79/271/17 66/308/17 62/272/17
f 72/274/16 68/273/16 62/275/16
f 78/277/13 76/309/13 64/278/13
f 76/280/14 84/310/14 69/281/14
f 84/283/15 88/311/15 77/284/15
f 69/281/16 77/312/16 71/286/16
